# Blender 4.0.2
# www.blender.org
mtllib senila1.mtl
o Cube
v 0.850000 -0.500000 0.000000
v 0.850000 0.500000 0.000000
v 1.550000 -0.500000 0.000000
v 1.550000 0.500000 0.000000
v 0.903859 -0.423059 2.000000
v 0.850000 -0.500000 1.692237
v 0.903859 0.423059 2.000000
v 0.850000 0.500000 1.692237
v 1.496142 -0.423059 2.000000
v 1.550000 -0.500000 1.692237
v 1.496142 0.423059 2.000000
v 1.550000 0.500000 1.692237
v 1.550000 -0.500000 0.000000
v 1.550000 0.500000 0.000000
v 0.850000 -0.500000 0.000000
v 0.850000 0.500000 0.000000
v 1.496142 -0.423059 2.000000
v 1.550000 -0.500000 1.692237
v 1.496142 0.423059 2.000000
v 1.550000 0.500000 1.692237
v 0.903859 -0.423059 2.000000
v 0.850000 -0.500000 1.692237
v 0.903859 0.423059 2.000000
v 0.850000 0.500000 1.692237
v 0.903859 -0.423059 -2.000000
v 0.850000 -0.500000 -1.692237
v 0.903859 0.423059 -2.000000
v 0.850000 0.500000 -1.692237
v 1.496142 -0.423059 -2.000000
v 1.550000 -0.500000 -1.692237
v 1.496142 0.423059 -2.000000
v 1.550000 0.500000 -1.692237
v 1.496142 -0.423059 -2.000000
v 1.550000 -0.500000 -1.692237
v 1.496142 0.423059 -2.000000
v 1.550000 0.500000 -1.692237
v 0.903859 -0.423059 -2.000000
v 0.850000 -0.500000 -1.692237
v 0.903859 0.423059 -2.000000
v 0.850000 0.500000 -1.692237
vn -0.0000 -1.0000 -0.0000
vn -0.0000 1.0000 -0.0000
vn 1.0000 -0.0000 -0.0000
vn -0.0000 -0.0000 1.0000
vn -0.9850 -0.0000 0.1724
vn 0.9850 -0.0000 0.1724
vn -0.0000 -0.9701 0.2425
vn -0.0000 0.9701 0.2425
vn -1.0000 -0.0000 -0.0000
vn -0.0000 -0.0000 -1.0000
vn -0.9850 -0.0000 -0.1724
vn 0.9850 -0.0000 -0.1724
vn -0.0000 -0.9701 -0.2425
vn -0.0000 0.9701 -0.2425
vt 0.125000 0.625000
vt 0.375000 0.625000
vt 0.375000 0.730765
vt 0.125000 0.730765
vt 0.625000 0.625000
vt 0.875000 0.625000
vt 0.875000 0.730765
vt 0.625000 0.730765
vt 0.394235 0.769235
vt 0.605765 0.769235
vt 0.605765 0.980765
vt 0.394235 0.980765
vt 0.625000 1.000000
vt 0.375000 1.000000
vt 0.375000 0.750000
vt 0.625000 0.750000
vt 0.375000 0.019235
vt 0.625000 0.019235
vt 0.625000 0.125000
vt 0.375000 0.125000
s 0
f 1/1/1 3/2/1 10/3/1 6/4/1
f 4/5/2 2/6/2 8/7/2 12/8/2
f 3/2/3 4/5/3 12/8/3 10/3/3
f 9/9/4 11/10/4 7/11/4 5/12/4
f 5/12/5 7/11/5 8/13/5 6/14/5
f 11/10/6 9/9/6 10/3/6 12/8/6
f 6/14/7 10/15/7 9/9/7 5/12/7
f 12/16/8 8/13/8 7/11/8 11/10/8
f 6/17/9 8/18/9 2/19/9 1/20/9
f 13/1/1 18/4/1 22/3/1 15/2/1
f 16/5/2 24/8/2 20/7/2 14/6/2
f 15/2/9 22/3/9 24/8/9 16/5/9
f 21/9/4 17/12/4 19/11/4 23/10/4
f 17/12/6 18/14/6 20/13/6 19/11/6
f 23/10/5 24/8/5 22/3/5 21/9/5
f 18/14/7 17/12/7 21/9/7 22/15/7
f 24/16/8 23/10/8 19/11/8 20/13/8
f 18/17/3 13/20/3 14/19/3 20/18/3
f 1/1/1 26/4/1 30/3/1 3/2/1
f 4/5/2 32/8/2 28/7/2 2/6/2
f 3/2/3 30/3/3 32/8/3 4/5/3
f 29/9/10 25/12/10 27/11/10 31/10/10
f 25/12/11 26/14/11 28/13/11 27/11/11
f 31/10/12 32/8/12 30/3/12 29/9/12
f 26/14/13 25/12/13 29/9/13 30/15/13
f 32/16/14 31/10/14 27/11/14 28/13/14
f 26/17/9 1/20/9 2/19/9 28/18/9
f 13/1/1 15/2/1 38/3/1 34/4/1
f 16/5/2 14/6/2 36/7/2 40/8/2
f 15/2/9 16/5/9 40/8/9 38/3/9
f 37/9/10 39/10/10 35/11/10 33/12/10
f 33/12/12 35/11/12 36/13/12 34/14/12
f 39/10/11 37/9/11 38/3/11 40/8/11
f 34/14/13 38/15/13 37/9/13 33/12/13
f 40/16/14 36/13/14 35/11/14 39/10/14
f 34/17/3 36/18/3 14/19/3 13/20/3
